# xmcd
#
# Track frame offsets:
#	150
#	12967
#	25220
#	37117
#	50140
#	63752
#	77250
#	90532
#	105110
#	117710
#	130002
#	143037
#	155785
#	167447
#	179995
#	193760
#
# Disc length: 2741 seconds
#
# Revision: 0
# Processed by: cddbd v1.5.2PL0 Copyright (c) Steve Scherf et al.
# Submitted via: audiograbber 1.81.02
#
DISCID=d40ab310
DTITLE=Mainers Mountaineers - Good Ole Mountain Music
DYEAR=1900
DGENRE=
TTITLE0=Whatll I Do With THe Baby O
TTITLE1=Workin On A Buildin
TTITLE2=John Henry
TTITLE3=Run Mountain
TTITLE4=I Am Not Turning Backward
TTITLE5=The Lonely Train
TTITLE6=Pale Moonlight
TTITLE7=Gathering Flowers From The Hillside
TTITLE8=Shoot The Turkey Buzzard
TTITLE9=Mothers Only Sleeping
TTITLE10=Johnson County Blues
TTITLE11=Big Balls In Town
TTITLE12=The Forks Of The Road
TTITLE13=The Yodelin Mountaineer
TTITLE14=I ll Remember Youre Love In My Prayers
TTITLE15=Lonely Tombs
EXTD=
EXTT0=
EXTT1=
EXTT2=
EXTT3=
EXTT4=
EXTT5=
EXTT6=
EXTT7=
EXTT8=
EXTT9=
EXTT10=
EXTT11=
EXTT12=
EXTT13=
EXTT14=
EXTT15=
PLAYORDER=
